{
	"asset":{
		"generator":"Khronos glTF Blender I/O v5.2.39",
		"version":"2.0"
	},
	"scene":0,
	"scenes":[
		{
			"name":"Building-01",
			"nodes":[
				0
			]
		}
	],
	"nodes":[
		{
			"mesh":0,
			"name":"Plane"
		}
	],
	"materials":[
		{
			"doubleSided":true,
			"name":"texture_atlas",
			"pbrMetallicRoughness":{
				"baseColorTexture":{
					"index":0
				},
				"metallicFactor":0,
				"roughnessFactor":0.5
			}
		}
	],
	"meshes":[
		{
			"name":"Plane",
			"primitives":[
				{
					"attributes":{
						"POSITION":0,
						"NORMAL":1,
						"TEXCOORD_0":2
					},
					"indices":3,
					"material":0
				}
			]
		}
	],
	"textures":[
		{
			"sampler":0,
			"source":0
		}
	],
	"images":[
		{
			"mimeType":"image/png",
			"name":"color_atlas",
			"uri":"textures/color_atlas.png"
		}
	],
	"accessors":[
		{
			"bufferView":0,
			"componentType":5126,
			"count":1157,
			"max":[
				2.1059556007385254,
				6.859213829040527,
				1.423061490058899
			],
			"min":[
				-2.1059556007385254,
				-0.1760493963956833,
				-1.423061490058899
			],
			"type":"VEC3"
		},
		{
			"bufferView":1,
			"componentType":5126,
			"count":1157,
			"type":"VEC3"
		},
		{
			"bufferView":2,
			"componentType":5126,
			"count":1157,
			"type":"VEC2"
		},
		{
			"bufferView":3,
			"componentType":5123,
			"count":2796,
			"type":"SCALAR"
		}
	],
	"bufferViews":[
		{
			"buffer":0,
			"byteLength":13884,
			"byteOffset":0,
			"target":34962
		},
		{
			"buffer":0,
			"byteLength":13884,
			"byteOffset":13884,
			"target":34962
		},
		{
			"buffer":0,
			"byteLength":9256,
			"byteOffset":27768,
			"target":34962
		},
		{
			"buffer":0,
			"byteLength":5592,
			"byteOffset":37024,
			"target":34963
		}
	],
	"samplers":[
		{
			"magFilter":9729,
			"minFilter":9987
		}
	],
	"buffers":[
		{
			"byteLength":42616,
			"uri":"building-01.bin"
		}
	]
}
